<svg width="140" height="140" viewBox="0 0 140 140" fill="none" xmlns="http://www.w3.org/2000/svg">
<path d="M70 140C108.66 140 140 108.66 140 70C140 31.3401 108.66 0 70 0C31.3401 0 0 31.3401 0 70C0 108.66 31.3401 140 70 140Z" fill="white"/>
<path d="M21.8125 49.5625H45.1875V84.75C45.1875 88.292 46.6667 90.062 49.625 90.062C52.5417 90.062 54 88.292 54 84.75V49.5625H77.375V84.312C77.375 92.396 74.6875 99.229 69.3125 104.812C63.9375 110.354 57.3542 113.125 49.5625 113.125C40.6875 113.125 33.5417 109.896 28.125 103.438C23.9167 98.396 21.8125 91.396 21.8125 82.438V49.5625ZM111.238 48.6875V111H87.8625V48.6875H111.238ZM99.6125 20.875C102.779 20.875 105.508 22 107.8 24.25C110.133 26.4583 111.3 29.0833 111.3 32.125C111.3 35.375 110.196 38.0417 107.988 40.125C105.821 42.2083 103.029 43.25 99.6125 43.25C96.1958 43.25 93.3833 42.2083 91.175 40.125C89.0083 38.0417 87.925 35.375 87.925 32.125C87.925 29.0833 89.0708 26.4583 91.3625 24.25C93.6958 22 96.4458 20.875 99.6125 20.875Z" fill="#FCFCFC"/>
<path d="M21.8125 49.5625V47.5625H19.8125V49.5625H21.8125ZM45.1875 49.5625H47.1875V47.5625H45.1875V49.5625ZM54 49.5625V47.5625H52V49.5625H54ZM77.375 49.5625H79.375V47.5625H77.375V49.5625ZM69.3125 104.812L70.7481 106.205L70.7533 106.2L69.3125 104.812ZM28.125 103.438L26.5896 104.719L26.5926 104.723L28.125 103.438ZM21.8125 51.5625H45.1875V47.5625H21.8125V51.5625ZM43.1875 49.5625V84.75H47.1875V49.5625H43.1875ZM43.1875 84.75C43.1875 86.75 43.5977 88.623 44.7619 90.017C45.9837 91.479 47.7335 92.062 49.625 92.062V88.062C48.5582 88.062 48.0892 87.76 47.8318 87.452C47.5169 87.075 47.1875 86.291 47.1875 84.75H43.1875ZM49.625 92.062C51.505 92.062 53.2418 91.473 54.4501 90.006C55.5972 88.613 56 86.745 56 84.75H52C52 86.297 51.6736 87.085 51.3624 87.463C51.1124 87.767 50.6616 88.062 49.625 88.062V92.062ZM56 84.75V49.5625H52V84.75H56ZM54 51.5625H77.375V47.5625H54V51.5625ZM75.375 49.5625V84.312H79.375V49.5625H75.375ZM75.375 84.312C75.375 91.903 72.8712 98.232 67.8717 103.425L70.7533 106.2C76.5038 100.226 79.375 92.888 79.375 84.312H75.375ZM67.8769 103.42C62.8825 108.569 56.8188 111.125 49.5625 111.125V115.125C57.8895 115.125 64.9925 112.139 70.7481 106.205L67.8769 103.42ZM49.5625 111.125C41.243 111.125 34.6716 108.131 29.6574 102.152L26.5926 104.723C32.4117 111.661 40.132 115.125 49.5625 115.125V111.125ZM29.6604 102.156C25.8458 97.586 23.8125 91.098 23.8125 82.438H19.8125C19.8125 91.694 21.9876 99.206 26.5896 104.719L29.6604 102.156ZM23.8125 82.438V49.5625H19.8125V82.438H23.8125ZM111.238 48.6875H113.238V46.6875H111.238V48.6875ZM111.238 111V113H113.238V111H111.238ZM87.8625 111H85.8625V113H87.8625V111ZM87.8625 48.6875V46.6875H85.8625V48.6875H87.8625ZM107.8 24.25L106.399 25.6771L106.412 25.69L106.425 25.7026L107.8 24.25ZM107.988 40.125L106.615 38.6702L106.608 38.6767L106.601 38.6833L107.988 40.125ZM91.175 40.125L89.7888 41.5667L89.7956 41.5733L89.8026 41.5798L91.175 40.125ZM109.238 48.6875V111H113.238V48.6875H109.238ZM111.238 109H87.8625V113H111.238V109ZM89.8625 111V48.6875H85.8625V111H89.8625ZM87.8625 50.6875H111.238V46.6875H87.8625V50.6875ZM99.6125 22.875C102.247 22.875 104.475 23.7885 106.399 25.6771L109.201 22.8229C106.541 20.2115 103.312 18.875 99.6125 18.875V22.875ZM106.425 25.7026C108.385 27.557 109.3 29.6666 109.3 32.125H113.3C113.3 28.5001 111.882 25.3597 109.175 22.7974L106.425 25.7026ZM109.3 32.125C109.3 34.8677 108.392 36.9935 106.615 38.6702L109.36 41.5798C111.999 39.0898 113.3 35.8823 113.3 32.125H109.3ZM106.601 38.6833C104.859 40.3587 102.589 41.25 99.6125 41.25V45.25C103.47 45.25 106.783 44.0579 109.374 41.5667L106.601 38.6833ZM99.6125 41.25C96.6369 41.25 94.3371 40.3586 92.5474 38.6702L89.8026 41.5798C92.4295 44.0581 95.7548 45.25 99.6125 45.25V41.25ZM92.5612 38.6833C90.8208 37.0098 89.925 34.8801 89.925 32.125H85.925C85.925 35.8699 87.1959 39.0735 89.7888 41.5667L92.5612 38.6833ZM89.925 32.125C89.925 29.6542 90.8295 27.5411 92.7503 25.6902L89.9747 22.8098C87.3121 25.3756 85.925 28.5125 85.925 32.125H89.925ZM92.7503 25.6902C94.7206 23.7902 96.9771 22.875 99.6125 22.875V18.875C95.9145 18.875 92.671 20.2098 89.9747 22.8098L92.7503 25.6902Z" fill="#2ABDBD"/>
<path d="M82.5 55L105.45 92.5H59.5503L82.5 55Z" fill="#BD2A2A"/>
</svg>
